<svg width="16" height="16" viewBox="0 0 16 16" fill="none" xmlns="http://www.w3.org/2000/svg">
<g clip-path="url(#clip0_1833_1959)">
<path fill-rule="evenodd" clip-rule="evenodd" d="M0.688848 4.31447C0.797616 4.31447 0.94264 4.13319 1.26894 3.80689C3.51682 1.70404 6.77987 0.471329 9.064 0.471329C10.7318 0.471329 11.4206 1.30522 11.4206 2.35665C11.4206 3.11802 11.0581 3.95191 10.4417 4.7858H11.5657C12.0007 3.98817 12.2183 3.19054 12.2183 2.42916C12.2183 1.19645 11.4206 0 9.24528 0C4.82204 0 0.543823 3.5531 0.543823 4.13319C0.580079 4.27822 0.616335 4.31447 0.688848 4.31447Z" fill="#FFB81C"/>
<path fill-rule="evenodd" clip-rule="evenodd" d="M8.6652 6.67128C6.67112 8.41157 3.98817 9.7893 2.24788 9.7893C1.45024 9.7893 0.906402 9.42674 0.906402 8.77413C0.906402 8.37531 1.08768 8.01275 1.34148 7.65019C1.52276 7.83147 1.92157 7.97649 2.3929 7.97649C4.42324 7.97649 6.67112 6.38123 6.67112 5.29354C6.67112 4.96724 6.38107 4.64093 5.76472 4.64093C4.74955 4.64093 2.93674 5.47482 1.66778 6.59876C1.52276 6.2362 1.77655 5.61985 2.24788 5.11226C3.26305 4.02458 5.18462 3.04567 6.23605 3.04567C6.34481 3.04567 6.38107 3.08192 6.38107 3.15444C6.38107 3.22695 6.23605 3.29946 6.23605 3.40823C6.23605 3.48074 6.2723 3.517 6.38107 3.517C6.56235 3.517 6.81614 3.22695 6.81614 2.97316C6.81614 2.79188 6.67112 2.64685 6.38107 2.64685C5.29339 2.64685 3.15428 3.58951 1.88532 4.82222C1.12394 5.54734 0.688866 6.49 1.05143 7.21512C0.398817 7.90398 0 8.66536 0 9.46299C0 10.4057 0.725122 11.0945 2.03034 11.0945C4.13319 11.0945 6.45358 10.0068 8.3389 8.52034L8.6652 6.67128ZM5.61969 5.03975C5.90974 5.03975 6.01851 5.18478 6.01851 5.3298C6.01851 5.94615 4.13319 7.21512 2.57418 7.21512C2.24788 7.21512 1.95783 7.10635 1.88532 6.99758C2.973 5.9099 4.71329 5.03975 5.61969 5.03975Z" fill="#FFB81C"/>
<path fill-rule="evenodd" clip-rule="evenodd" d="M24.2916 7.79515C25.0892 7.54136 25.4518 6.85249 25.4518 6.19988C25.4518 5.4385 24.8717 4.82215 23.7477 4.82215H20.4847L19.397 10.9132H22.9863C24.0015 10.9132 24.9079 10.2243 25.0892 9.20914V8.95534C25.1254 8.37525 24.7991 7.94017 24.2916 7.79515ZM22.5875 9.46293H21.5361L21.7174 8.44776H22.7325C22.9863 8.44776 23.2401 8.55653 23.2401 8.84658C23.2401 9.20914 22.9501 9.46293 22.5875 9.46293ZM23.0588 7.14254H21.9349L22.1162 6.12737H23.2039C23.4577 6.12737 23.6752 6.23614 23.6752 6.52619C23.6752 6.88875 23.3852 7.14254 23.0588 7.14254ZM18.0918 4.78589L17.5842 7.83141L15.8439 4.78589H14.2849L13.1972 10.8769H14.9012L15.4451 7.68638L17.2216 10.8769H18.6719L19.7595 4.78589H18.0918ZM10.2242 8.55653H12.4721L12.7259 7.10628H10.478L10.623 6.23614H13.451L13.7048 4.78589H8.99149L7.90381 10.8769H12.6171L12.8709 9.42667H10.0429L10.2242 8.55653ZM42.3471 8.70155H43.2172C43.1447 9.28165 42.8909 9.5717 42.2746 9.5717C41.8395 9.5717 41.5857 9.35416 41.5857 8.91909V8.70155L41.912 6.88875C42.0208 6.38116 42.4196 6.09111 42.9272 6.09111C43.2897 6.09111 43.616 6.27239 43.616 6.67121C43.616 6.74372 43.616 6.85249 43.5798 6.925H45.3201C45.3563 6.74372 45.3926 6.52619 45.3926 6.34491C45.4288 5.07594 44.0874 4.60461 43.0722 4.60461C41.4769 4.60461 40.2805 5.4385 40.0267 6.925L39.7004 8.70155C39.6641 8.84658 39.6641 9.02786 39.6641 9.17288C39.6641 10.5144 40.8243 11.0582 41.9845 11.0582C43.2535 11.0582 44.7037 10.3693 44.9575 8.9916C45.0663 8.48401 45.1388 7.97643 45.2113 7.46884H42.5284L42.3471 8.70155ZM52.245 5.25722C52.245 5.18471 52.1725 5.07594 52.0637 5.07594H51.8462V5.58353H51.9187V5.40225H52.0637L52.1725 5.58353H52.2812L52.1725 5.40225C52.1725 5.40225 52.245 5.32974 52.245 5.25722ZM52.0275 5.36599H51.9187V5.18471H52.0275C52.1 5.18471 52.1362 5.22097 52.1362 5.29348C52.1362 5.32974 52.1 5.36599 52.0275 5.36599ZM45.2838 10.8769H49.9971L50.2509 9.42667H47.4229L47.568 8.55653H49.8158L50.0696 7.10628H47.8218L47.9668 6.23614H50.7947L51.0485 4.78589H46.3353L45.2838 10.8769ZM31.1802 6.52619C31.1802 5.36599 30.3101 4.78589 29.2224 4.78589H26.3219L25.2342 10.8769H27.1195L27.4821 8.84658H27.9897L28.6785 10.8769H30.6001L29.8025 8.6653C30.6726 8.4115 31.1802 7.5051 31.1802 6.52619ZM28.5335 7.57761H27.6996L27.9172 6.19988H28.6785C29.0048 6.19988 29.3312 6.38116 29.3312 6.74372C29.3674 7.21505 29.0048 7.57761 28.5335 7.57761ZM51.9912 4.82215C51.6286 4.82215 51.4111 5.07594 51.4111 5.36599C51.4111 5.65604 51.6286 5.90983 51.9912 5.90983C52.3538 5.90983 52.5713 5.65604 52.5713 5.36599C52.5713 5.07594 52.3538 4.82215 51.9912 4.82215ZM51.9912 5.87358C51.6649 5.87358 51.4836 5.65604 51.4836 5.36599C51.4836 5.07594 51.6649 4.85841 51.9912 4.85841C52.3175 4.85841 52.4988 5.07594 52.4988 5.36599C52.4988 5.65604 52.3175 5.87358 51.9912 5.87358ZM32.0866 4.78589L30.9989 10.8769H32.8842L33.9719 4.78589H32.0866ZM37.3075 4.78589H34.6245L33.5369 10.8769H36.2561C37.7063 10.8769 38.8665 10.3693 39.1566 8.84658C39.2653 8.23022 39.4103 7.57761 39.4829 6.96126C39.5191 6.81624 39.5191 6.67121 39.5191 6.52619C39.5191 5.29348 38.3952 4.78589 37.3075 4.78589ZM37.5613 7.03377L37.2712 8.62904C37.1987 9.10037 36.8362 9.42667 36.3648 9.42667H35.676L36.2198 6.27239H36.8724C37.2712 6.27239 37.5975 6.45367 37.5975 6.88875C37.5975 6.925 37.5613 6.96126 37.5613 7.03377Z" fill="white"/>
</g>
<defs>
<clipPath id="clip0_1833_1959">
<rect width="16" height="16" fill="white"/>
</clipPath>
</defs>
</svg>
