<svg width="16" height="16" fill="none" xmlns="http://www.w3.org/2000/svg"><g clip-path="url(#clip0_1833_1959)" fill-rule="evenodd" clip-rule="evenodd"><path d="M.689 4.314c.109 0 .254-.18.58-.507C3.517 1.704 6.779.47 9.064.47c1.668 0 2.357.834 2.357 1.886 0 .761-.363 1.595-.98 2.429h1.125c.435-.798.652-1.595.652-2.357C12.218 1.196 11.421 0 9.245 0 4.822 0 .544 3.553.544 4.133c.036.145.072.181.145.181z" fill="#FFB81C"/><path d="M8.665 6.671C6.671 8.411 3.988 9.79 2.248 9.79 1.45 9.79.906 9.427.906 8.774c0-.399.182-.761.435-1.124.182.181.58.326 1.052.326 2.03 0 4.278-1.595 4.278-2.682 0-.327-.29-.653-.906-.653-1.015 0-2.828.834-4.097 1.958-.145-.363.109-.98.58-1.487 1.015-1.087 2.937-2.066 3.988-2.066.109 0 .145.036.145.108 0 .073-.145.145-.145.254 0 .073.036.109.145.109.181 0 .435-.29.435-.544 0-.181-.145-.326-.435-.326-1.088 0-3.227.943-4.496 2.175-.761.725-1.196 1.668-.834 2.393C.4 7.904 0 8.665 0 9.463c0 .943.725 1.632 2.03 1.632 2.103 0 4.424-1.088 6.309-2.575l.326-1.849zM5.62 5.04c.29 0 .399.145.399.29 0 .616-1.886 1.885-3.445 1.885-.326 0-.616-.109-.689-.217C2.973 5.91 4.713 5.04 5.62 5.04z" fill="#FFB81C"/><path d="M24.292 7.795c.797-.254 1.16-.943 1.16-1.595 0-.761-.58-1.378-1.704-1.378h-3.263l-1.088 6.091h3.59c1.015 0 1.92-.689 2.102-1.704v-.254c.036-.58-.29-1.015-.797-1.16zm-1.705 1.668h-1.05l.18-1.015h1.016c.253 0 .507.109.507.399 0 .362-.29.616-.652.616zm.472-2.32h-1.124l.181-1.016h1.088c.254 0 .471.11.471.4 0 .362-.29.616-.616.616zm-4.967-2.357l-.508 3.045-1.74-3.045h-1.56l-1.087 6.09h1.704l.544-3.19 1.777 3.19h1.45l1.087-6.09h-1.667zm-7.868 3.77h2.248l.254-1.45h-2.248l.145-.87h2.828l.254-1.45H8.99l-1.087 6.09h4.713l.254-1.45h-2.828l.181-.87zm32.123.146h.87c-.072.58-.326.87-.942.87-.435 0-.69-.218-.69-.653v-.217l.327-1.813c.109-.508.508-.798 1.015-.798.363 0 .689.181.689.58 0 .073 0 .181-.036.254h1.74c.036-.181.073-.399.073-.58.036-1.27-1.306-1.74-2.32-1.74-1.596 0-2.792.833-3.046 2.32L39.7 8.702c-.036.145-.036.326-.036.47 0 1.342 1.16 1.886 2.32 1.886 1.27 0 2.72-.689 2.974-2.066.108-.508.18-1.016.253-1.523h-2.683l-.18 1.233zm9.898-3.445c0-.072-.072-.181-.181-.181h-.218v.508h.073v-.182h.145l.108.182h.11l-.11-.182s.073-.072.073-.145zm-.217.109h-.11v-.181h.11c.072 0 .108.036.108.108 0 .037-.036.073-.108.073zm-6.744 5.51h4.713l.254-1.45h-2.828l.145-.87h2.248l.254-1.45h-2.248l.145-.87h2.828l.253-1.45h-4.713l-1.051 6.09zM31.18 6.527c0-1.16-.87-1.74-1.958-1.74h-2.9l-1.088 6.09h1.885l.363-2.03h.508l.689 2.03H30.6l-.798-2.21c.87-.255 1.378-1.16 1.378-2.14zm-2.646 1.052H27.7l.217-1.378h.761c.327 0 .653.181.653.544.036.471-.326.834-.797.834zM51.99 4.822c-.362 0-.58.254-.58.544 0 .29.218.544.58.544.363 0 .58-.254.58-.544 0-.29-.217-.544-.58-.544zm0 1.052c-.326 0-.507-.218-.507-.508 0-.29.18-.508.507-.508s.508.218.508.508c0 .29-.181.508-.508.508zM32.087 4.786l-1.088 6.09h1.885l1.088-6.09h-1.885zm5.22 0h-2.683l-1.087 6.09h2.72c1.45 0 2.61-.507 2.9-2.03.108-.616.253-1.268.326-1.885.036-.145.036-.29.036-.435 0-1.233-1.124-1.74-2.212-1.74zm.254 2.248l-.29 1.595c-.072.471-.435.798-.906.798h-.689l.544-3.155h.652c.4 0 .725.182.725.617 0 .036-.036.072-.036.145z" fill="#fff"/></g><defs><clipPath id="clip0_1833_1959"><path fill="#fff" d="M0 0h16v16H0z"/></clipPath></defs></svg>